HIERARCHY
ROOT Hips
{
	OFFSET	0.00	0.00	0.00
	CHANNELS 6 Xposition Yposition Zposition Zrotation Xrotation Yrotation
	JOINT LeftUpLeg
	{
		OFFSET	 0.126116	-0.014019	-0.065224
		CHANNELS 3 Zrotation Xrotation Yrotation
		JOINT LeftLeg
		{
			OFFSET	 0.000000	 0.000000	 0.569914
			CHANNELS 3 Zrotation Xrotation Yrotation
			JOINT LeftFoot
			{
				OFFSET	 0.000000	 0.000000	 0.544423
				CHANNELS 3 Zrotation Xrotation Yrotation
				JOINT LeftToeBase
				{
					OFFSET	 0.000000	 0.000000	 0.207117
					CHANNELS 3 Zrotation Xrotation Yrotation
					End Site
					{
						OFFSET	 0.000000	 0.000000	 0.207117
					}
				}
			}
		}
	}
	JOINT RightUpLeg
	{
		OFFSET	-0.124023	-0.008373	-0.065224
		CHANNELS 3 Zrotation Xrotation Yrotation
		JOINT RightLeg
		{
			OFFSET	 0.000000	 0.000000	 0.570047
			CHANNELS 3 Zrotation Xrotation Yrotation
			JOINT RightFoot
			{
				OFFSET	 0.000000	 0.000000	 0.544354
				CHANNELS 3 Zrotation Xrotation Yrotation
				JOINT RightToeBase
				{
					OFFSET	 0.000000	 0.000000	 0.207540
					CHANNELS 3 Zrotation Xrotation Yrotation
					End Site
					{
						OFFSET	 0.000000	 0.000000	 0.207540
					}
				}
			}
		}
	}
	JOINT Spine
	{
		OFFSET	 0.000184	-0.007763	 0.117403
		CHANNELS 3 Zrotation Xrotation Yrotation
		JOINT Spine1
		{
			OFFSET	 0.000000	 0.000000	 0.137269
			CHANNELS 3 Zrotation Xrotation Yrotation
			JOINT Spine2
			{
				OFFSET	 0.000000	 0.000000	 0.156879
				CHANNELS 3 Zrotation Xrotation Yrotation
				JOINT LeftShoulder
				{
					OFFSET	 0.080501	-0.002496	 0.160144
					CHANNELS 3 Zrotation Xrotation Yrotation
					JOINT LeftArm
					{
						OFFSET	 0.000000	 0.000000	 0.164363
						CHANNELS 3 Zrotation Xrotation Yrotation
						JOINT LeftForeArm
						{
							OFFSET	 0.000000	 0.000000	 0.364576
							CHANNELS 3 Zrotation Xrotation Yrotation
							JOINT LeftHand
							{
								OFFSET	 0.000000	 0.000000	 0.360812
								CHANNELS 3 Zrotation Xrotation Yrotation
								JOINT LeftHandIndex1
								{
									OFFSET	 0.000000	 0.000000	 0.086006
									CHANNELS 3 Zrotation Xrotation Yrotation
									JOINT LeftHandIndex2
									{
										OFFSET	 0.000000	 0.000000	 0.047236
										CHANNELS 3 Zrotation Xrotation Yrotation
										JOINT LeftHandIndex3
										{
											OFFSET	-0.004284	-0.000551	 0.038166
											CHANNELS 3 Zrotation Xrotation Yrotation
											End Site
											{
												OFFSET	-0.004284	-0.000551	 0.038166
											}
										}
									}
								}
							}
						}
					}
				}
				JOINT Neck
				{
					OFFSET	 0.000000	 0.000000	 0.176489
					CHANNELS 3 Zrotation Xrotation Yrotation
					JOINT Head
					{
						OFFSET	 0.000000	-0.001747	 0.077940
						CHANNELS 3 Zrotation Xrotation Yrotation
						End Site
						{
							OFFSET	 0.000000	-0.001747	 0.077940
						}
					}
				}
				JOINT RightShoulder
				{
					OFFSET	-0.080363	 0.000306	 0.159706
					CHANNELS 3 Zrotation Xrotation Yrotation
					JOINT RightArm
					{
						OFFSET	 0.000000	 0.000000	 0.164196
						CHANNELS 3 Zrotation Xrotation Yrotation
						JOINT RightForeArm
						{
							OFFSET	 0.000000	 0.000000	 0.365611
							CHANNELS 3 Zrotation Xrotation Yrotation
							JOINT RightHand
							{
								OFFSET	 0.000000	 0.000000	 0.360648
								CHANNELS 3 Zrotation Xrotation Yrotation
								JOINT RightHandIndex1
								{
									OFFSET	 0.000000	 0.000000	 0.069977
									CHANNELS 3 Zrotation Xrotation Yrotation
									JOINT RightHandIndex2
									{
										OFFSET	 0.000000	 0.000000	 0.052305
										CHANNELS 3 Zrotation Xrotation Yrotation
										JOINT RightHandIndex3
										{
											OFFSET	 0.009002	-0.000782	 0.042196
											CHANNELS 3 Zrotation Xrotation Yrotation
											End Site
											{
												OFFSET	 0.009002	-0.000782	 0.042196
											}
										}
									}
								}
							}
						}
					}
				}
			}
		}
	}
}
MOTION
Frames:    5
Frame Time: 0.03333334
 0.000299	 0.019614	 1.272784	-0.002662	 0.004277	 0.174537	-8.411492	-1.764228	 179.058300	 1.466681	-12.473760	-0.729173	-5.176628	 71.441310	-1.143385	-2.385833	 28.452760	 0.000004	 8.252002	-1.855642	-179.308900	-1.458367	-12.080640	 0.692515	 4.953104	 71.069600	 1.183171	 2.384658	 28.388730	 0.000004	-5.094336	 2.607823	 0.283940	-2.146535	 4.063346	-0.777289	 6.496515	-5.011896	 1.432147	-91.776220	 78.527470	-180.000000	 60.888610	 41.101070	-57.666500	-8.370444	 2.975854	-7.610205	-31.906950	-20.315670	-4.958618	-2.635965	 4.993658	 6.788941	-5.165319	 0.784187	 3.516649	-5.225038	 0.466231	 0.424329	-0.000002	-3.783157	-0.089647	 6.303705	 4.396049	-0.242203	 89.782040	 78.203890	-180.000000	-64.576540	 42.114460	 56.641130	 7.707846	 5.196458	 12.139150	 32.901120	-21.014110	 9.806553	 6.112037	 4.509576	-0.364401	 4.968462	 1.518543	-9.347576	 5.168945	 0.703820	 2.021906
 0.000299	 0.019529	 1.274207	-0.002082	 0.005265	 0.173513	-8.292079	-1.757889	 179.049000	 1.466970	-12.451750	-0.727843	-5.181788	 71.196030	-1.133612	-2.385833	 28.452760	 0.000004	 8.132805	-1.850481	-179.298800	-1.458586	-12.063120	 0.691478	 4.959186	 70.827000	 1.174032	 2.384658	 28.388730	 0.000004	-5.768494	 2.501575	 0.265313	-2.104817	 4.431196	-0.734944	 6.367520	-5.493984	 1.434438	-91.776120	 78.527470	 179.999900	 61.004340	 41.153300	-57.568750	-8.723703	 2.998578	-7.804564	-33.033190	-23.223120	-5.441620	-2.635965	 4.993658	 6.788941	-5.165319	 0.784187	 3.516649	-5.225038	 0.466231	 0.424329	-0.000002	-3.783157	-0.089647	 6.159018	 4.188857	-0.225471	 89.782120	 78.203830	 180.000000	-64.308790	 41.702290	 57.663770	 7.619534	 4.920642	 11.845280	 34.261790	-24.167170	 10.226870	 6.112037	 4.509576	-0.364401	 4.968462	 1.518543	-9.347576	 5.168945	 0.703820	 2.021906
 0.000293	 0.019439	 1.275764	-0.001406	 0.006311	 0.169374	-8.162344	-1.747782	 179.041400	 1.467376	-12.420340	-0.725948	-5.185398	 70.926730	-1.124626	-2.385833	 28.452760	 0.000004	 8.003940	-1.847060	-179.285300	-1.458755	-12.049400	 0.690669	 4.966027	 70.567090	 1.163942	 2.384658	 28.388730	 0.000004	-6.487893	 2.389465	 0.244303	-2.030295	 4.819375	-0.680359	 6.138730	-6.008705	 1.414084	-91.776140	 78.527490	 180.000000	 61.117900	 41.212860	-57.466340	-9.127802	 3.013777	-7.994076	-34.373140	-26.433230	-6.125017	-2.635965	 4.993658	 6.788941	-5.165319	 0.784187	 3.516649	-5.225038	 0.466231	 0.424329	-0.000002	-3.783157	-0.089647	 5.917242	 3.979799	-0.205786	 89.782100	 78.203890	 180.000000	-63.745010	 41.011260	 58.820920	 7.393153	 4.741954	 11.862360	 35.946080	-27.760160	 10.824220	 6.112037	 4.509576	-0.364401	 4.968462	 1.518543	-9.347576	 5.168945	 0.703820	 2.021906
 0.000276	 0.019343	 1.277499	-0.000639	 0.007388	 0.160886	-8.005039	-1.733291	 179.035200	 1.467935	-12.377120	-0.723341	-5.171742	 70.622400	-1.120125	-2.385833	 28.452760	 0.000004	 7.871243	-1.846308	-179.267900	-1.458848	-12.042020	 0.690232	 4.988327	 70.281040	 1.148713	 2.384658	 28.388730	 0.000004	-7.273028	 2.269754	 0.220872	-1.911196	 5.234103	-0.610464	 5.774998	-6.565616	 1.361414	-91.776200	 78.527450	 180.000000	 61.222600	 41.279430	-57.348550	-9.603646	 3.019649	-8.181769	-36.018290	-29.965870	-7.098233	-2.635965	 4.993658	 6.788941	-5.165319	 0.784187	 3.516649	-5.225038	 0.466231	 0.424329	-0.000002	-3.783157	-0.089647	 5.545568	 3.767257	-0.182535	 89.782120	 78.203890	 180.000000	-62.347350	 39.917260	 59.176610	 6.813855	 5.320752	 13.840780	 37.994160	-31.784720	 11.723620	 6.112037	 4.509576	-0.364401	 4.968462	 1.518543	-9.347576	 5.168945	 0.703820	 2.021906
 0.000248	 0.019255	 1.279246	 0.000071	 0.008279	 0.148202	-7.860141	-1.714711	 179.033600	 1.468605	-12.325460	-0.720228	-5.174073	 70.312610	-1.112509	-2.385833	 28.452760	 0.000004	 7.725874	-1.850031	-179.246100	-1.458813	-12.044650	 0.690389	 4.995318	 69.999330	 1.136540	 2.384658	 28.388730	 0.000004	-8.037736	 2.157470	 0.198434	-1.754017	 5.623827	-0.532740	 5.297283	-7.095542	 1.275157	-91.776190	 78.527470	-180.000000	 61.297230	 41.342990	-57.227100	-10.107320	 3.008082	-8.332462	-37.817870	-33.294560	-8.293384	-2.635965	 4.993658	 6.788941	-5.165319	 0.784187	 3.516649	-5.225038	 0.466231	 0.424329	-0.000002	-3.783157	-0.089647	 5.068508	 3.577752	-0.158416	 89.782100	 78.203900	 180.000000	-60.239480	 38.525730	 59.732130	 5.864575	 5.939431	 16.241440	 39.753290	-35.744060	 12.685320	 6.112037	 4.509576	-0.364401	 4.968462	 1.518543	-9.347576	 5.168945	 0.703820	 2.021906
